<svg xmlns="http://www.w3.org/2000/svg" viewBox="0 0 310 310" style="enable-background:new 0 0 310 310" xml:space="preserve"><path d="M147.767 18.6v7.75h-21.73l.144 6.846.144 6.846 10.731.139 10.731.14-.139 11.194-.14 11.194-59.675 49.192c-32.821 27.056-59.649 49.527-59.617 49.936.032.409 3.255 4.611 7.163 9.338l7.105 8.595 3.687-3.017a87732.41 87732.41 0 0 0 56.123-46.227c28.839-23.765 52.557-43.209 52.705-43.209.148 0 23.865 19.444 52.706 43.21a86237.678 86237.678 0 0 0 56.124 46.227l3.687 3.016 7.105-8.595c3.908-4.727 7.131-8.929 7.163-9.338.032-.409-26.796-22.878-59.617-49.931l-59.675-49.187-.14-11.199-.139-11.199 10.731-.14 10.731-.139.144-6.846.144-6.846h-21.73v-15.5h-14.466v7.75m-37.042 119.26-44.016 36.515-.029 62.388-.03 62.387h57.791l.193-29.062c.186-28.148.228-29.169 1.31-32.421 3.065-9.207 10.317-16.682 19.141-19.731 2.894-1 4.508-1.194 9.915-1.194 5.407 0 7.021.194 9.915 1.194 8.824 3.049 16.076 10.524 19.141 19.731 1.082 3.252 1.124 4.273 1.31 32.421l.193 29.062h57.791l-.028-62.387-.029-62.388-43.971-36.425c-24.184-20.034-44.108-36.465-44.276-36.515-.167-.049-20.112 16.343-44.321 36.425m-82.946 84.985L.016 238.958l-.008 30.359L0 299.675l28.288-.133 28.287-.134.132-46.37c.105-36.942 0-46.365-.517-46.339-.356.018-13.142 7.283-28.411 16.146m225.514 30.154.132 46.409 28.288.134 28.287.133-.008-30.358-.008-30.359-27.715-16.016c-15.244-8.809-28.029-16.092-28.412-16.185-.58-.139-.674 7.548-.564 46.242" fill-rule="evenodd"/></svg>